<svg width="30" height="30" viewBox="0 0 30 30" fill="none" xmlns="http://www.w3.org/2000/svg">
<path d="M15 30C23.2843 30 30 23.2843 30 15C30 6.71573 23.2843 0 15 0C6.71573 0 0 6.71573 0 15C0 23.2843 6.71573 30 15 30Z" fill="#65A2D9"/>
<path d="M23.0282 8.16357C21.4635 9.52113 19.9079 10.7109 18.6363 12.3737C15.5085 16.1454 11.6863 21.4967 6.4848 20.699L15.7784 29.98C23.6566 29.5773 29.9286 23.0957 29.9982 15.1338L23.0282 8.16357Z" fill="#3A7CA5"/>
<path d="M23.3128 9.51994C22.9311 9.68922 22.5352 9.8227 22.1287 9.91926C22.5766 9.49381 22.9133 8.96149 23.1032 8.36746C23.1574 8.19795 22.9732 8.05117 22.82 8.14199C22.2546 8.47744 21.6456 8.72887 21.0098 8.88977C20.9731 8.89914 20.9351 8.90383 20.8968 8.90383C20.7809 8.90383 20.6685 8.86088 20.5798 8.78283C19.9035 8.1867 19.0335 7.8584 18.1303 7.8584C17.7393 7.8584 17.3448 7.91934 16.9574 8.03951C15.757 8.41176 14.8308 9.40205 14.54 10.6237C14.4311 11.0818 14.4016 11.5406 14.4524 11.9868C14.4581 12.0381 14.434 12.0739 14.419 12.0906C14.3927 12.12 14.3555 12.137 14.3168 12.137C14.3126 12.137 14.308 12.1368 14.3037 12.1364C11.676 11.8922 9.30639 10.6263 7.63166 8.57172C7.54641 8.46689 7.38246 8.47979 7.31438 8.59645C6.98649 9.1593 6.81317 9.80283 6.81317 10.4577C6.81317 11.4613 7.21653 12.4072 7.9169 13.0967C7.62235 13.0268 7.33723 12.9169 7.07233 12.7697C6.94412 12.6985 6.78656 12.7902 6.78475 12.9367C6.76658 14.4276 7.63951 15.7543 8.94715 16.3517C8.92078 16.3523 8.89442 16.3525 8.86805 16.3525C8.6608 16.3525 8.4508 16.3327 8.24432 16.293C8.1 16.2657 7.97877 16.4024 8.02354 16.5422C8.44811 17.8675 9.58899 18.8443 10.9545 19.0659C9.82131 19.8266 8.50155 20.2278 7.12817 20.2278L6.70008 20.2276C6.56795 20.2276 6.45633 20.3137 6.42293 20.4415C6.38983 20.5672 6.45071 20.7001 6.56332 20.7655C8.1109 21.6662 9.87627 22.1422 11.6691 22.1422C13.2384 22.1422 14.7064 21.8309 16.0323 21.2165C17.2478 20.6535 18.3219 19.8486 19.2248 18.8243C20.0661 17.87 20.7237 16.7685 21.1798 15.5501C21.6145 14.389 21.8443 13.1497 21.8443 11.9669V11.9104C21.8443 11.7205 21.9301 11.5418 22.0801 11.42C22.6488 10.9581 23.1441 10.4146 23.5521 9.80442C23.6599 9.6434 23.4899 9.44137 23.3128 9.51994Z" fill="white"/>
<path d="M23.3128 9.51994C22.9311 9.68922 22.5352 9.82269 22.1287 9.91926C22.5766 9.49381 22.9133 8.96148 23.1033 8.36746C23.1575 8.19795 22.9733 8.05117 22.8202 8.14199C22.2547 8.47744 21.6457 8.72887 21.01 8.88976C20.9732 8.89914 20.9352 8.90383 20.8969 8.90383C20.781 8.90383 20.6687 8.86088 20.5799 8.78283C19.9036 8.1867 19.0336 7.8584 18.1304 7.8584C17.7395 7.8584 17.3449 7.91934 16.9576 8.03951C16.1184 8.29973 15.414 8.86264 14.9662 9.59494V21.6346C15.3308 21.5157 15.6865 21.3766 16.0325 21.2163C17.2481 20.6533 18.3221 19.8484 19.2251 18.8241C20.0663 17.8698 20.724 16.7683 21.1801 15.5499C21.6147 14.3888 21.8445 13.1495 21.8445 11.9667V11.9102C21.8445 11.7203 21.9304 11.5416 22.0803 11.4198C22.649 10.9579 23.1444 10.4144 23.5523 9.80424C23.6599 9.6434 23.49 9.44137 23.3128 9.51994Z" fill="#D1D1D1"/>
</svg>
