<svg width="30" height="30" viewBox="0 0 30 30" fill="none" xmlns="http://www.w3.org/2000/svg">
<path d="M30 15C30 23.2844 23.2844 30 15 30C6.71562 30 0 23.2844 0 15C0 6.71562 6.71562 0 15 0C23.2844 0 30 6.71562 30 15Z" fill="#4A7AFF"/>
<path d="M15.6582 29.9849C23.6371 29.6404 30 23.0638 30 15.0002C30 14.9419 29.9984 14.8837 29.9977 14.8254L19.5856 4.41309L8.45282 16.0494L14.6384 22.235L11.7863 26.1129L15.6582 29.9849Z" fill="#0053BF"/>
<path d="M19.5857 4.41289V7.8095C19.5857 7.8095 15.686 7.24347 15.686 9.75934V12.2752H19.2083L18.7681 16.112H15.686V26.1127H11.7863V16.112L8.45264 16.049V12.2752H11.7234V9.38191C11.7234 9.38191 11.5075 5.07779 15.7489 4.28723C17.5102 3.95879 19.5857 4.41289 19.5857 4.41289Z" fill="white"/>
<path d="M19.5857 7.8095V4.41289C19.5857 4.41289 17.5102 3.95879 15.7489 4.28723C15.4738 4.3385 15.2179 4.40488 14.9792 4.48339V26.1127H15.686V16.112H18.7679L19.2082 12.2752H15.686C15.686 12.2752 15.686 12.2752 15.686 9.75934C15.686 7.24347 19.5857 7.8095 19.5857 7.8095Z" fill="#DCE1EB"/>
</svg>
