<svg width="54" height="41" viewBox="0 0 54 41" fill="none" xmlns="http://www.w3.org/2000/svg">
<path fill-rule="evenodd" clip-rule="evenodd" d="M43.9629 18.976H19.9024C18.3067 18.976 17.0118 17.7511 17.0352 16.2417V3.37945C17.0352 1.89197 18.3067 0.666992 19.9024 0.666992H43.9629C45.5352 0.666992 46.8301 1.87011 46.8301 3.37945V16.2636C46.8301 17.7511 45.5586 18.976 43.9629 18.976ZM18.584 7.60124H45.2579V5.12942H18.584V7.60124ZM19.9024 17.4886H43.9629C44.6797 17.4886 45.2579 16.9417 45.2579 16.2636V9.08872H18.584V16.2417C18.584 16.9417 19.1856 17.4886 19.9024 17.4886ZM43.9629 2.15447H19.9024C19.1856 2.15447 18.584 2.70132 18.584 3.40132V3.64193H45.2813V3.40132C45.2813 2.70132 44.6797 2.15447 43.9629 2.15447ZM47.7539 23.4604C49.625 22.454 52.0059 23.0666 53.0938 24.8384C53.9942 26.3259 53.5332 28.1853 51.8457 29.804C51.8223 29.804 51.7989 29.8259 51.7754 29.8477L51.752 29.8635C51.4395 30.0897 48.0039 32.6912 44.0782 35.2726C38.3926 38.9913 34.6016 40.8069 32.4532 40.8069C28.3614 40.8069 17.6817 38.6851 14.4004 38.0069V38.5319C14.4004 38.9476 14.0528 39.2757 13.6133 39.2757H11.2559V40.0632C11.2559 40.4787 10.9102 40.8069 10.4707 40.8069H0.785159C0.347659 40.8069 0 40.4787 0 40.0632C0 39.6475 0.347659 39.3195 0.785159 39.3195H6.56445V38.5756C6.56445 38.1601 6.91016 37.8319 7.34961 37.8319C7.78906 37.8319 8.13672 38.1601 8.13672 38.5756V39.3195H9.70706V21.5135H1.57227V37.1101C1.57227 37.5257 1.22461 37.8538 0.785159 37.8538C0.347659 37.8538 0 37.5257 0 37.1101V20.7698C0 20.3541 0.347659 20.026 0.785159 20.026H10.4707C10.9102 20.026 11.2559 20.3541 11.2559 20.7698V21.5135H13.6133C14.0528 21.5135 14.4004 21.8416 14.4004 22.2572V22.8697C20.0821 22.1265 23.2715 23.1746 29.3204 25.1626L29.3321 25.1665C31.1817 25.7572 33.2618 26.4572 35.8047 27.2227C35.8047 27.2446 35.8262 27.2446 35.8262 27.2446H35.8497C37.7676 28.0103 38.2071 29.6946 37.7911 31.0289C37.3985 32.2758 36.1739 33.4132 34.5098 33.4132C34.3008 33.4132 34.0704 33.3914 33.8399 33.3477C32.336 33.0633 22.9981 31.8821 22.9063 31.8601C22.4668 31.8164 22.1661 31.4446 22.2364 31.0289C22.2813 30.6133 22.6758 30.3289 23.1133 30.3946C23.5079 30.4384 32.5918 31.5976 34.1387 31.8821C35.2715 32.1008 36.0586 31.3571 36.3125 30.5914C36.7051 29.3227 35.6426 28.754 35.2715 28.6008C32.7305 27.8353 30.6485 27.1571 28.8008 26.5447L28.7657 26.5321C22.7325 24.55 19.8204 23.5932 14.377 24.3572V36.4757C17.1504 37.0445 28.4063 39.2975 32.4297 39.2975C36.0586 39.2975 46.8301 31.6633 50.7364 28.6883C51.3125 28.1415 52.4922 26.7852 51.7286 25.5603C51.0821 24.5103 49.6485 24.1384 48.5157 24.7509C48.4942 24.7509 48.4942 24.7728 48.4707 24.7728C48.4239 24.7946 43.8477 26.9384 40.1036 28.4258C39.711 28.579 39.2481 28.404 39.086 28.0321C38.9239 27.6603 39.1094 27.2227 39.502 27.0696C42.5293 25.8609 46.1231 24.2095 47.3438 23.6476L47.7539 23.4604ZM11.2559 23.001V37.8101H12.8282V37.0882V23.001H11.2559ZM28.2676 12.5449H20.9395C20.502 12.5449 20.1543 12.873 20.1543 13.2886C20.1543 13.7043 20.502 14.0324 20.9395 14.0324H28.2676C28.7071 14.0324 29.0528 13.7043 29.0528 13.2886C29.0528 12.873 28.7071 12.5449 28.2676 12.5449ZM40.8184 12.5449H42.9219C43.3379 12.5449 43.709 12.873 43.709 13.2886C43.709 13.7043 43.3614 14.0324 42.9219 14.0324H40.8184C40.3809 14.0324 40.0332 13.7043 40.0332 13.2886C40.0332 12.873 40.3809 12.5449 40.8184 12.5449Z" fill="#1D1D1B"/>
</svg>
